<?xml version="1.0" encoding="UTF-8"?>
<svg id="Capa_2" data-name="Capa 2" xmlns="http://www.w3.org/2000/svg" viewBox="0 0 135 119">
  <defs>
    <style>
      .cls-1 {
        fill: none;
        stroke-linecap: round;
        stroke-linejoin: round;
      }

      .cls-1, .cls-2 {
        stroke: #1e1926;
        stroke-width: 5px;
      }

      .cls-2 {
        fill: #ffd24a;
        stroke-miterlimit: 10;
      }
    </style>
  </defs>
  <g id="Capa_1-2" data-name="Capa 1">
    <g>
      <path class="cls-2" d="M46.5,10.75h0c0-4.56-3.69-8.25-8.25-8.25H10.75C6.19,2.5,2.5,6.19,2.5,10.75V108.25c0,4.56,3.69,8.25,8.25,8.25H124.25c4.56,0,8.25-3.69,8.25-8.25V27.25c0-4.56-3.69-8.25-8.25-8.25H54.76c-4.56,0-8.25-3.69-8.25-8.25Z"/>
      <path class="cls-1" d="M88.79,53.76l-28.17,28.17c-3.18,3.18-8.34,3.18-11.53,0h0c-3.18-3.18-3.18-8.34,0-11.53l27.94-27.94c5.41-5.41,14.18-5.41,19.59,0h0c5.41,5.41,5.41,14.18,0,19.59l-29.81,29.81c-7.43,7.43-19.49,7.43-26.92,0h0c-7.43-7.43-7.43-19.49,0-26.92l17.85-17.85"/>
    </g>
  </g>
</svg>