<?xml version="1.0" encoding="UTF-8"?>
<svg id="Capa_2" data-name="Capa 2" xmlns="http://www.w3.org/2000/svg" viewBox="0 0 145 144.99">
  <defs>
    <style>
      .cls-1 {
        fill: #00abfd;
      }

      .cls-1, .cls-2, .cls-3 {
        stroke: #1e1926;
        stroke-miterlimit: 10;
        stroke-width: 5px;
      }

      .cls-2 {
        fill: #80197e;
      }

      .cls-3 {
        fill: #f5281a;
      }
    </style>
  </defs>
  <g id="Capa_1-2" data-name="Capa 1">
    <g>
      <path class="cls-3" d="M127.36,90.78c-6.66,6.66-14.7,11.13-23.19,13.4,4.62-17.25,.15-36.43-13.38-49.97-13.54-13.53-32.72-18-49.97-13.38,2.27-8.5,6.74-16.53,13.4-23.19,20.2-20.19,52.94-20.19,73.14,0,20.19,20.2,20.19,52.94,0,73.14Z"/>
      <path class="cls-2" d="M104.17,104.18c-17.25,4.6-36.41,.14-49.95-13.4-13.54-13.54-18-32.7-13.4-49.95,17.25-4.62,36.43-.15,49.97,13.38,13.53,13.54,18,32.72,13.38,49.97Z"/>
      <path class="cls-1" d="M104.17,104.18c-2.27,8.49-6.73,16.51-13.38,23.17-20.2,20.19-52.94,20.19-73.14,0-20.2-20.2-20.2-52.94,0-73.14,6.66-6.66,14.68-11.12,23.17-13.38-4.6,17.25-.14,36.41,13.4,49.95,13.54,13.54,32.7,18,49.95,13.4Z"/>
    </g>
  </g>
</svg>