<?xml version="1.0" encoding="UTF-8"?>
<svg id="Capa_2" data-name="Capa 2" xmlns="http://www.w3.org/2000/svg" viewBox="0 0 120 106.98">
  <defs>
    <style>
      .cls-1 {
        fill: aqua;
      }

      .cls-1, .cls-2, .cls-3 {
        stroke: #1e1926;
        stroke-linecap: round;
        stroke-linejoin: round;
        stroke-width: 5px;
      }

      .cls-2 {
        fill: #0090ce;
      }

      .cls-3 {
        fill: #00d2ff;
      }
    </style>
  </defs>
  <g id="Capa_1-2" data-name="Capa 1">
    <g>
      <path class="cls-1" d="M116.36,100.27l-56.45-32.58V2.5c2.82,0,5.64,1.38,7.27,4.14,.01,.02,.03,.05,.04,.08l49.14,85.11s.02,.03,.02,.04c1.6,2.81,1.39,5.95-.02,8.4Z"/>
      <path class="cls-3" d="M116.36,100.27c-1.43,2.46-4.07,4.22-7.31,4.22l-98.1-.11c-3.24,0-5.87-1.75-7.29-4.22l56.26-32.49,56.45,32.59Z"/>
      <path class="cls-2" d="M59.91,2.5V67.69L3.65,100.16h-.01c-1.41-2.45-1.62-5.62,0-8.42L52.6,6.73c1.62-2.82,4.46-4.23,7.3-4.23Z"/>
    </g>
  </g>
</svg>