<?xml version="1.0" encoding="UTF-8"?>
<svg id="Capa_2" data-name="Capa 2" xmlns="http://www.w3.org/2000/svg" viewBox="0 0 113.25 106.28">
  <defs>
    <style>
      .cls-1 {
        fill: #00abfd;
        stroke-linecap: round;
        stroke-linejoin: round;
      }

      .cls-1, .cls-2, .cls-3 {
        stroke: #1e1926;
        stroke-width: 5px;
      }

      .cls-2 {
        fill: #f29317;
      }

      .cls-2, .cls-3 {
        stroke-miterlimit: 10;
      }

      .cls-3 {
        fill: #f720a3;
      }
    </style>
  </defs>
  <g id="Capa_1-2" data-name="Capa 1">
    <g>
      <path class="cls-3" d="M104.22,40.67s-.05,.04-.08,.06c-4.88,4.03-13.56,3.14-18.36,1.68-12.13-3.66-30.99-6.25-46.46,4.12-6.14,4.12-10.11,8.97-10.32,16.73h-.01v.14C7.78,68.04,2.5,50.94,2.5,39.27,2.5,18.96,18.84,2.5,56.63,2.5c17.6,0,30.55,3.58,39.36,9.44h.01s0,0,0,.01c5.75,3.85,9.74,8.67,12.1,14.11,.31,.72,.55,1.46,.72,2.21,1.01,4.6-.71,9.54-4.61,12.4Z"/>
      <path class="cls-1" d="M110.75,39.27c0,2.55-.08,4.89-.27,7.03-.37,4.11-1.16,7.46-2.59,10.08-1.8,3.29-4.1,5.64-6.7,7.32-8.42,5.45-20.05,3.92-28.4,4.42-3.78,.23-7.33,2.14-9.38,5.31-2.2,3.4-5.48,6.04-9.35,7.44-1.99,.71-4.13,1.1-6.36,1.1-10.28,0-18.71-4.14-18.71-18.06,0-.22,0-.44,.01-.65,.21-7.76,4.18-12.61,10.32-16.73,15.47-10.37,34.33-7.78,46.46-4.12,4.8,1.46,13.48,2.35,18.36-1.68,.03-.02,.05-.04,.08-.06,3.9-2.86,5.62-7.8,4.61-12.4,.1,.27,.2,.55,.31,.85h0c.75,2.14,1.61,5.2,1.61,10.15Z"/>
      <path class="cls-2" d="M101.19,63.7c-1.75,10.16-6.88,17.23-17.64,20.28-3.33,.95-5.53,4.1-5.1,7.54l2.52,12.26h-9.88c-4.68-25.66-15.26-21.41-17.03-22.91,3.87-1.4,7.15-4.04,9.35-7.44,2.05-3.17,5.6-5.08,9.38-5.31,8.35-.5,19.98,1.03,28.4-4.42Z"/>
    </g>
  </g>
</svg>