<?xml version="1.0" encoding="UTF-8"?>
<svg id="Capa_2" data-name="Capa 2" xmlns="http://www.w3.org/2000/svg" viewBox="0 0 155 155"
  className="tamanio">
  <defs>
    <style>
      .tamanio{
      width: 15px !important;
      height: 15px !important;
      }
      .cls-1 {
      fill: #00abfd;
      }

      .cls-1, .cls-2, .cls-3, .cls-4, .cls-5, .cls-6, .cls-7, .cls-8 {
      stroke: #1e1926;
      stroke-miterlimit: 10;
      stroke-width: 5px;
      }

      .cls-2 {
      fill: #f29317;
      }

      .cls-3 {
      fill: #f720a3;
      }

      .cls-4 {
      fill: #80197e;
      }

      .cls-5 {
      fill: #264f9d;
      }

      .cls-6 {
      fill: #f7e51b;
      }

      .cls-7 {
      fill: #21f300;
      }

      .cls-8 {
      fill: #f5281a;
      }
    </style>
  </defs>
  <g id="Capa_1-2" data-name="Capa 1">
    <g>
      <path class="cls-3"
        d="M77.49,2.5V25.71c-14.3,0-27.25,5.8-36.62,15.18L24.46,24.47C38.03,10.9,56.78,2.5,77.49,2.5Z" />
      <path class="cls-4"
        d="M40.87,40.88c-9.37,9.37-15.17,22.32-15.17,36.62H2.5c0-20.71,8.4-39.46,21.96-53.03l16.41,16.41Z" />
      <path class="cls-5"
        d="M40.87,114.12l-16.41,16.41C10.9,116.96,2.5,98.21,2.5,77.5H25.71c0,14.3,5.8,27.25,15.17,36.62Z" />
      <path class="cls-1"
        d="M77.49,129.3v23.21c-20.71,0-39.46-8.4-53.03-21.97l16.41-16.41c9.37,9.37,22.32,15.17,36.62,15.18Z" />
      <path class="cls-7"
        d="M130.53,130.54c-13.57,13.57-32.32,21.96-53.03,21.96h0v-23.21h0c14.29,0,27.25-5.8,36.62-15.17l16.41,16.41Z" />
      <path class="cls-6"
        d="M152.5,77.5c0,20.71-8.4,39.46-21.97,53.04l-16.41-16.41c9.38-9.37,15.18-22.32,15.18-36.62h23.21Z" />
      <path class="cls-2"
        d="M152.5,77.5h-23.21c0-14.3-5.8-27.25-15.17-36.62l16.41-16.41c13.58,13.57,21.97,32.32,21.97,53.04Z" />
      <path class="cls-8"
        d="M130.53,24.46l-16.41,16.41h0c-9.37-9.37-22.32-15.17-36.62-15.17h0V2.5h0c20.71,0,39.46,8.4,53.03,21.96Z" />
    </g>
  </g>
</svg>